<svg width="416" height="416" viewBox="0 0 416 416" fill="none" xmlns="http://www.w3.org/2000/svg">
<path d="M316.251 138.291C321.935 131.525 321.057 121.432 314.291 115.749C307.525 110.065 297.432 110.943 291.749 117.709L316.251 138.291ZM169.6 288L157.707 298.703C160.805 302.146 165.243 304.077 169.873 303.998C174.504 303.919 178.873 301.837 181.851 298.291L169.6 288ZM123.893 213.297C117.981 206.728 107.865 206.196 101.297 212.107C94.7284 218.019 94.1959 228.135 100.107 234.703L123.893 213.297ZM416 208C416 93.1634 322.837 0 208 0V32C305.163 32 384 110.837 384 208H416ZM208 0C93.1634 0 0 93.1634 0 208H32C32 110.837 110.837 32 208 32V0ZM0 208C0 322.837 93.1634 416 208 416V384C110.837 384 32 305.163 32 208H0ZM208 416C322.837 416 416 322.837 416 208H384C384 305.163 305.163 384 208 384V416ZM291.749 117.709L157.349 277.709L181.851 298.291L316.251 138.291L291.749 117.709ZM181.493 277.297L123.893 213.297L100.107 234.703L157.707 298.703L181.493 277.297Z" fill="#04D000"/>
</svg>
